<?xml version="1.0" standalone="no"?>
<!DOCTYPE svg PUBLIC "-//W3C//DTD SVG 20010904//EN"
 "http://www.w3.org/TR/2001/REC-SVG-20010904/DTD/svg10.dtd">
<svg version="1.0" xmlns="http://www.w3.org/2000/svg"
 width="1024.000000pt" height="1024.000000pt" viewBox="0 0 1024.000000 1024.000000"
 preserveAspectRatio="xMidYMid meet">

<g transform="translate(0.000000,1024.000000) scale(0.100000,-0.100000)"
fill="#000000" stroke="none">
<path d="M0 5120 l0 -5120 5120 0 5120 0 0 5120 0 5120 -5120 0 -5120 0 0
-5120z m3879 3618 c-90 -153 -160 -337 -180 -470 -14 -96 -7 -248 15 -333 25
-96 98 -233 160 -302 59 -65 151 -128 227 -157 l47 -18 -43 -91 c-50 -108 -86
-219 -110 -337 -10 -47 -19 -91 -21 -98 -10 -34 -218 113 -335 236 -182 190
-275 397 -286 637 -14 295 111 588 349 822 63 62 186 162 201 163 4 0 -7 -24
-24 -52z m2662 -118 c163 -161 265 -334 321 -540 19 -72 23 -108 22 -240 -1
-138 -3 -164 -27 -243 -80 -261 -264 -490 -515 -641 -35 -21 -65 -37 -66 -35
-2 2 -11 42 -21 89 -23 115 -77 279 -122 370 l-38 76 89 43 c125 60 216 152
280 282 60 122 77 189 83 329 8 187 -41 370 -156 580 -25 47 -48 89 -50 94
-10 25 106 -71 200 -164z m-1335 -573 l82 -132 -13 -130 c-20 -199 -35 -449
-34 -565 l2 -105 8 80 c28 255 91 669 105 684 10 11 122 -25 210 -69 321 -159
535 -462 609 -860 8 -47 20 -166 25 -265 13 -237 27 -360 51 -451 38 -144 61
-190 193 -370 7 -9 -15 -40 -79 -110 l-90 -97 -45 95 c-25 52 -58 133 -73 179
-31 97 -76 315 -77 374 0 22 -5 47 -11 55 -7 11 -9 -43 -6 -180 6 -216 21
-310 83 -502 l35 -108 -55 -51 c-78 -71 -227 -195 -321 -266 -100 -75 -374
-257 -380 -251 -2 2 0 127 5 278 5 151 12 424 15 605 3 182 8 366 11 410 l6
80 116 38 c139 45 288 114 320 149 26 29 44 88 67 228 8 52 17 105 20 117 5
20 0 19 -88 -18 -50 -21 -211 -85 -357 -142 l-265 -104 -5 -289 -5 -289 -68
-95 c-38 -52 -72 -95 -77 -95 -4 0 -39 43 -77 95 l-68 95 -5 289 -5 290 -180
71 c-435 173 -518 205 -523 200 -3 -3 6 -78 21 -168 26 -155 29 -163 60 -193
37 -34 242 -124 359 -157 l76 -22 6 -170 c17 -447 42 -1200 40 -1203 -4 -6
-191 115 -311 201 -135 95 -296 223 -390 310 l-69 63 29 84 c38 116 74 268 87
370 13 106 13 330 0 350 -7 11 -10 0 -10 -37 0 -70 -34 -259 -65 -368 -26 -90
-122 -305 -135 -305 -4 0 -46 41 -94 90 l-85 90 55 73 c140 180 182 331 204
731 16 290 51 456 135 633 128 272 355 482 619 573 81 28 92 26 99 -12 3 -18
18 -100 32 -183 15 -82 37 -239 50 -350 19 -164 23 -187 24 -125 1 101 -17
412 -34 585 l-14 140 82 132 c45 73 84 132 87 132 3 0 42 -59 86 -132z m2007
-3391 c42 -8 89 -22 105 -30 28 -15 30 -19 46 -138 9 -68 16 -131 16 -140 0
-32 -28 -19 -59 26 -41 60 -81 91 -146 115 -70 26 -147 27 -203 1 -52 -24 -82
-80 -82 -155 0 -91 49 -162 151 -221 208 -120 255 -150 299 -195 65 -64 84
-126 78 -248 -9 -185 -114 -305 -313 -356 -113 -29 -299 -13 -395 33 -34 17
-35 20 -47 97 -6 44 -14 117 -18 163 -6 70 -5 82 8 82 8 0 27 -20 42 -45 59
-101 123 -153 223 -181 117 -33 216 0 260 86 38 75 25 165 -33 228 -19 22 -90
68 -170 112 -235 130 -282 181 -306 338 -46 302 199 494 544 428z m-5699 -14
c4 -7 36 -279 36 -307 0 -16 -28 -1 -45 26 -43 66 -157 119 -257 119 l-48 0 0
-510 c0 -558 -1 -553 59 -602 17 -15 31 -29 31 -32 0 -3 -90 -6 -200 -6 -110
0 -200 3 -200 8 0 4 13 14 29 24 16 9 38 31 48 50 17 30 18 72 21 552 l3 519
-81 -6 c-100 -8 -160 -33 -222 -94 -26 -26 -50 -44 -54 -41 -5 6 22 266 31
296 4 9 97 12 424 12 231 0 422 -4 425 -8z m433 -167 c8 -3 1 -15 -17 -34 -30
-29 -34 -42 -30 -91 2 -36 119 -543 135 -588 l13 -37 12 30 c25 62 193 641
193 665 0 14 -3 33 -7 43 -7 15 -2 17 53 17 42 0 61 -4 61 -12 -1 -21 204
-738 211 -738 6 0 11 18 85 344 65 288 66 306 19 353 -19 19 -35 39 -35 44 0
5 78 9 175 9 96 0 175 -2 175 -5 0 -3 -22 -26 -49 -52 -33 -33 -55 -66 -70
-106 -12 -33 -74 -268 -137 -523 l-116 -464 -74 0 c-41 0 -74 2 -74 4 0 8
-191 660 -194 663 -2 2 -40 -124 -85 -279 -45 -156 -90 -307 -99 -336 l-16
-53 -70 3 -70 3 -131 523 c-136 540 -146 569 -201 594 -58 26 -24 33 153 30
98 -1 183 -4 190 -7z m6553 -1 c0 -6 -17 -19 -39 -28 -21 -10 -63 -43 -93 -74
-83 -86 -310 -381 -305 -395 11 -30 332 -487 378 -540 29 -32 67 -66 85 -75
19 -8 34 -19 34 -24 0 -4 -69 -8 -154 -8 -153 0 -155 0 -186 27 -17 14 -104
136 -192 270 -88 133 -164 243 -169 243 -5 0 -9 -91 -9 -202 0 -223 10 -268
64 -303 14 -10 26 -21 26 -26 0 -5 -88 -9 -195 -9 -107 0 -195 4 -195 8 0 5
14 19 31 31 58 43 59 49 59 523 0 286 -4 447 -11 473 -6 22 -26 54 -45 72 -19
17 -34 34 -34 37 0 3 88 6 195 6 107 0 195 -2 195 -4 0 -2 -18 -21 -39 -43
-48 -48 -53 -80 -49 -318 l3 -170 107 142 c204 269 233 327 187 369 -19 17
-19 19 -2 25 32 11 353 5 353 -7z m490 10 c0 -3 -14 -22 -31 -41 -25 -29 -29
-40 -23 -67 7 -34 176 -395 185 -396 3 0 47 84 97 188 104 211 110 238 62 282
-16 15 -30 31 -30 34 0 3 76 6 169 6 121 0 172 -3 177 -12 4 -7 2 -14 -6 -16
-55 -19 -159 -179 -317 -490 l-73 -144 0 -184 c0 -205 7 -236 59 -275 17 -12
31 -26 31 -31 0 -4 -90 -8 -200 -8 -110 0 -200 4 -200 8 0 5 11 14 25 20 14 6
34 26 45 44 18 30 20 51 20 225 l0 192 -81 158 c-229 445 -224 436 -284 473
-19 12 -33 25 -30 30 6 9 405 14 405 4z m-5226 -81 c8 -98 8 -173 -1 -173 -3
0 -21 17 -39 38 -42 50 -82 61 -236 69 l-128 6 0 -176 0 -177 101 0 c111 0
158 15 186 56 8 13 19 24 24 24 5 0 9 -70 9 -155 0 -85 -3 -155 -6 -155 -4 0
-21 13 -40 29 -43 39 -90 51 -191 51 l-83 0 0 -185 0 -185 88 0 c114 0 214 15
261 40 36 18 84 65 93 91 2 6 11 10 20 8 13 -4 11 -21 -16 -139 l-31 -135
-357 -3 c-197 -1 -358 1 -358 5 0 5 15 20 34 35 23 18 37 41 45 72 14 57 15
851 1 916 -8 34 -21 54 -53 82 l-42 38 356 0 356 0 7 -77z m576 67 c0 -5 -13
-16 -30 -25 -65 -34 -65 -33 -68 -527 l-3 -448 80 0 c150 0 241 38 306 127 33
46 60 57 52 21 -3 -13 -15 -83 -27 -155 l-23 -133 -343 0 c-189 0 -344 4 -344
8 0 5 12 15 27 23 14 8 34 32 44 54 17 37 19 76 19 479 0 483 -2 501 -57 545
-18 14 -33 29 -33 34 0 4 90 7 200 7 123 0 200 -4 200 -10z m640 4 c0 -4 -11
-17 -25 -30 -13 -12 -27 -33 -30 -46 -4 -17 25 -120 88 -314 52 -159 105 -324
117 -367 13 -43 26 -74 30 -70 10 11 210 652 217 695 6 43 -15 88 -51 108 -14
7 -26 17 -26 22 0 4 81 8 181 8 108 0 179 -4 177 -9 -1 -6 -19 -20 -38 -33
-23 -15 -46 -45 -65 -85 -17 -34 -103 -278 -190 -542 l-160 -481 -84 3 -83 2
-173 513 c-96 282 -183 527 -194 545 -11 17 -33 40 -50 50 -17 10 -31 22 -31
28 0 5 79 9 195 9 107 0 195 -3 195 -6z m1464 -56 c18 -211 17 -216 -41 -148
-43 50 -77 60 -235 67 l-128 6 0 -177 0 -176 100 0 c112 0 155 12 187 54 39
49 43 35 43 -129 0 -129 -2 -155 -15 -155 -8 0 -19 9 -24 19 -22 40 -90 61
-194 61 l-97 0 0 -185 0 -185 68 0 c196 0 316 35 364 106 13 19 30 34 39 34
14 0 12 -16 -13 -117 -15 -65 -30 -128 -33 -140 l-5 -23 -360 0 c-198 0 -360
2 -360 5 0 3 18 22 39 43 35 33 40 43 46 102 3 36 5 250 3 475 -3 370 -5 413
-21 442 -9 18 -29 40 -42 49 -14 9 -25 20 -25 25 0 5 153 9 349 9 l349 0 6
-62z m-4204 -1586 c0 -5 -9 -17 -20 -27 -11 -10 -20 -28 -20 -41 0 -17 65
-209 136 -404 7 -19 144 363 144 401 0 16 -9 38 -20 49 -18 18 -18 21 -5 26
20 8 182 0 191 -9 4 -4 -5 -16 -20 -28 -37 -29 -55 -68 -171 -374 l-103 -270
-37 0 -37 0 -114 305 c-100 269 -118 309 -149 336 -19 17 -32 34 -28 37 10 10
253 8 253 -1z m954 -264 c120 -303 143 -349 186 -375 17 -9 30 -21 30 -25 0
-4 -63 -8 -140 -8 -77 0 -140 3 -140 6 0 3 11 15 25 26 28 22 30 34 13 89
l-11 39 -118 0 c-109 0 -119 -2 -129 -21 -19 -34 -15 -78 8 -102 12 -13 22
-26 22 -30 0 -4 -47 -7 -105 -7 -58 0 -105 2 -105 3 0 2 17 22 38 44 32 33 53
81 141 314 57 151 108 284 112 297 6 16 17 22 37 22 28 0 30 -4 136 -272z
m1431 260 c4 -4 -6 -18 -21 -32 -28 -23 -29 -28 -32 -130 l-4 -106 136 0 136
0 0 89 c0 98 -10 137 -41 159 -10 7 -17 17 -14 22 7 12 232 13 240 0 3 -5 -1
-13 -10 -16 -40 -16 -45 -52 -45 -314 0 -261 5 -298 45 -313 8 -4 15 -11 15
-17 0 -6 -46 -10 -125 -10 -69 0 -125 3 -125 7 0 4 12 17 28 29 27 22 27 22
27 149 l0 127 -132 2 -133 1 0 -108 c0 -118 14 -171 49 -182 48 -15 2 -25
-115 -25 -120 0 -147 7 -105 29 38 21 42 56 39 325 l-3 258 -27 23 c-16 13
-28 26 -28 29 0 11 234 15 245 4z m1105 -270 c124 -311 138 -340 181 -365 16
-10 29 -21 29 -25 0 -4 -61 -8 -135 -8 -132 0 -158 7 -115 30 23 12 26 49 9
99 l-11 31 -117 0 c-116 0 -118 0 -129 -25 -19 -40 -14 -74 13 -101 14 -14 25
-27 25 -29 0 -3 -49 -5 -110 -5 -60 0 -110 4 -110 8 0 5 13 18 30 30 40 30 51
53 170 370 139 367 120 367 270 -10z m693 275 c4 -3 -6 -17 -23 -33 l-30 -28
0 -267 0 -267 68 6 c94 10 127 22 161 62 17 19 33 34 37 34 7 0 1 -48 -17
-130 l-11 -50 -219 0 c-120 0 -219 4 -219 8 0 5 14 18 30 30 l30 23 0 275 0
276 -30 28 -31 29 33 4 c41 6 210 5 221 0z m700 1 c3 -4 -7 -19 -23 -34 l-30
-28 0 -256 c0 -141 0 -259 0 -263 1 -13 153 -2 182 13 15 8 39 30 54 49 15 20
29 34 31 31 2 -2 -4 -45 -13 -95 l-18 -91 -218 0 c-120 0 -218 3 -218 6 0 3
14 17 30 31 l30 25 0 275 0 275 -30 28 c-16 15 -26 30 -23 34 8 8 238 8 246 0z
m898 -251 c124 -313 139 -344 184 -380 19 -15 35 -31 35 -35 0 -5 -61 -8 -135
-8 -83 0 -135 4 -135 10 0 6 4 10 10 10 5 0 16 10 25 23 13 21 13 28 -1 70
l-16 47 -117 0 c-116 0 -118 0 -129 -25 -19 -40 -14 -74 13 -101 14 -14 25
-27 25 -29 0 -3 -47 -5 -105 -5 -102 0 -126 8 -87 29 30 16 73 111 178 389
132 351 116 351 255 5z m-4135 224 c-38 -31 -43 -71 -42 -342 l1 -220 70 3
c97 4 129 17 170 65 41 50 43 41 17 -73 l-18 -75 -217 -3 c-119 -1 -217 0
-217 2 0 2 14 18 30 34 l30 30 0 272 0 272 -31 29 -31 29 133 0 134 0 -29 -23z"/>
<path d="M2995 2532 c-21 -59 -40 -113 -43 -119 -3 -10 17 -13 82 -13 47 0 86
1 86 3 0 5 -81 231 -84 234 -1 1 -19 -46 -41 -105z"/>
<path d="M5524 2523 c-21 -59 -40 -111 -42 -115 -2 -4 35 -8 82 -8 47 0 86 3
86 6 0 12 -72 209 -80 217 -4 4 -25 -40 -46 -100z"/>
<path d="M7853 2598 c-6 -18 -25 -70 -42 -115 l-30 -83 90 0 c85 0 89 1 80 19
-6 11 -25 59 -42 108 -18 48 -35 91 -39 96 -3 4 -11 -7 -17 -25z"/>
</g>
</svg>
